<mxfile host="app.diagrams.net" modified="2022-07-15T03:39:08.862Z" agent="5.0 (X11; Linux x86_64) AppleWebKit/537.36 (KHTML, like Gecko) Chrome/102.0.0.0 Safari/537.36" etag="t1R_oKsn1aXNzLQWoGWP" version="18.0.7" type="github">
  <diagram id="fythrvdmesjt3412t-Rf" name="第 1 页">
    <mxGraphModel dx="1422" dy="748" grid="1" gridSize="10" guides="1" tooltips="1" connect="1" arrows="1" fold="1" page="1" pageScale="1" pageWidth="827" pageHeight="1169" math="0" shadow="0">
      <root>
        <mxCell id="0" />
        <mxCell id="1" parent="0" />
        <mxCell id="T7uMT_AeqPQdtZ66Rs_m-7" style="edgeStyle=orthogonalEdgeStyle;rounded=1;orthogonalLoop=1;jettySize=auto;html=1;exitX=1;exitY=0.5;exitDx=0;exitDy=0;entryX=0;entryY=0.5;entryDx=0;entryDy=0;sketch=1;curved=1;" edge="1" parent="1" source="T7uMT_AeqPQdtZ66Rs_m-1" target="T7uMT_AeqPQdtZ66Rs_m-2">
          <mxGeometry relative="1" as="geometry" />
        </mxCell>
        <mxCell id="T7uMT_AeqPQdtZ66Rs_m-1" value="提交企业签署相关信息" style="rounded=1;whiteSpace=wrap;html=1;sketch=1;" vertex="1" parent="1">
          <mxGeometry x="90" y="120" width="120" height="60" as="geometry" />
        </mxCell>
        <mxCell id="T7uMT_AeqPQdtZ66Rs_m-8" style="edgeStyle=orthogonalEdgeStyle;rounded=1;orthogonalLoop=1;jettySize=auto;html=1;exitX=1;exitY=0.5;exitDx=0;exitDy=0;entryX=0;entryY=0.5;entryDx=0;entryDy=0;sketch=1;curved=1;" edge="1" parent="1" source="T7uMT_AeqPQdtZ66Rs_m-2" target="T7uMT_AeqPQdtZ66Rs_m-3">
          <mxGeometry relative="1" as="geometry" />
        </mxCell>
        <mxCell id="T7uMT_AeqPQdtZ66Rs_m-2" value="接收到系统发送的签署邮件" style="rounded=1;whiteSpace=wrap;html=1;sketch=1;" vertex="1" parent="1">
          <mxGeometry x="260" y="120" width="120" height="60" as="geometry" />
        </mxCell>
        <mxCell id="T7uMT_AeqPQdtZ66Rs_m-9" style="edgeStyle=orthogonalEdgeStyle;rounded=1;orthogonalLoop=1;jettySize=auto;html=1;exitX=0.5;exitY=1;exitDx=0;exitDy=0;entryX=0.5;entryY=0;entryDx=0;entryDy=0;sketch=1;curved=1;" edge="1" parent="1" source="T7uMT_AeqPQdtZ66Rs_m-3" target="T7uMT_AeqPQdtZ66Rs_m-4">
          <mxGeometry relative="1" as="geometry" />
        </mxCell>
        <mxCell id="T7uMT_AeqPQdtZ66Rs_m-3" value="填写邮件附件中的文件并邮寄" style="rounded=1;whiteSpace=wrap;html=1;sketch=1;" vertex="1" parent="1">
          <mxGeometry x="430" y="120" width="120" height="60" as="geometry" />
        </mxCell>
        <mxCell id="T7uMT_AeqPQdtZ66Rs_m-10" style="edgeStyle=orthogonalEdgeStyle;rounded=1;orthogonalLoop=1;jettySize=auto;html=1;exitX=0;exitY=0.5;exitDx=0;exitDy=0;entryX=1;entryY=0.5;entryDx=0;entryDy=0;sketch=1;curved=1;" edge="1" parent="1" source="T7uMT_AeqPQdtZ66Rs_m-4" target="T7uMT_AeqPQdtZ66Rs_m-5">
          <mxGeometry relative="1" as="geometry" />
        </mxCell>
        <mxCell id="T7uMT_AeqPQdtZ66Rs_m-4" value="openKylin社区管理员审核会员信息" style="rounded=1;whiteSpace=wrap;html=1;sketch=1;" vertex="1" parent="1">
          <mxGeometry x="430" y="240" width="120" height="60" as="geometry" />
        </mxCell>
        <mxCell id="T7uMT_AeqPQdtZ66Rs_m-11" style="edgeStyle=orthogonalEdgeStyle;rounded=1;orthogonalLoop=1;jettySize=auto;html=1;exitX=0;exitY=0.5;exitDx=0;exitDy=0;entryX=1;entryY=0.5;entryDx=0;entryDy=0;sketch=1;curved=1;" edge="1" parent="1" source="T7uMT_AeqPQdtZ66Rs_m-5" target="T7uMT_AeqPQdtZ66Rs_m-6">
          <mxGeometry relative="1" as="geometry" />
        </mxCell>
        <mxCell id="T7uMT_AeqPQdtZ66Rs_m-5" value="完成企业签署并接收到社区企业管理员账号" style="rounded=1;whiteSpace=wrap;html=1;sketch=1;" vertex="1" parent="1">
          <mxGeometry x="260" y="240" width="120" height="60" as="geometry" />
        </mxCell>
        <mxCell id="T7uMT_AeqPQdtZ66Rs_m-6" value="成为openKylin社区会员" style="rounded=1;whiteSpace=wrap;html=1;sketch=1;" vertex="1" parent="1">
          <mxGeometry x="90" y="240" width="120" height="60" as="geometry" />
        </mxCell>
      </root>
    </mxGraphModel>
  </diagram>
</mxfile>
